<svg width="25" height="25" viewBox="0 0 25 25" fill="none" xmlns="http://www.w3.org/2000/svg">
<g id="ArrowCircleUpRight" clip-path="url(#clip0_94_1747)">
<path id="Vector" d="M12.5 2.50342C10.5716 2.50342 8.68657 3.07525 7.08319 4.14659C5.47982 5.21793 4.23013 6.74067 3.49218 8.52225C2.75422 10.3038 2.56114 12.2642 2.93735 14.1555C3.31355 16.0469 4.24215 17.7841 5.60571 19.1477C6.96928 20.5113 8.70656 21.4399 10.5979 21.8161C12.4892 22.1923 14.4496 21.9992 16.2312 21.2612C18.0127 20.5233 19.5355 19.2736 20.6068 17.6702C21.6782 16.0668 22.25 14.1818 22.25 12.2534C22.2473 9.6684 21.2192 7.19003 19.3913 5.36214C17.5634 3.53425 15.085 2.50615 12.5 2.50342ZM16.25 13.7534C16.25 13.9523 16.171 14.1431 16.0303 14.2837C15.8897 14.4244 15.6989 14.5034 15.5 14.5034C15.3011 14.5034 15.1103 14.4244 14.9697 14.2837C14.829 14.1431 14.75 13.9523 14.75 13.7534V11.0637L10.0306 15.784C9.96095 15.8537 9.87822 15.909 9.78718 15.9467C9.69613 15.9844 9.59855 16.0038 9.5 16.0038C9.40146 16.0038 9.30388 15.9844 9.21283 15.9467C9.12179 15.909 9.03906 15.8537 8.96938 15.784C8.8997 15.7144 8.84442 15.6316 8.80671 15.5406C8.769 15.4495 8.74959 15.352 8.74959 15.2534C8.74959 15.1549 8.769 15.0573 8.80671 14.9662C8.84442 14.8752 8.8997 14.7925 8.96938 14.7228L13.6897 10.0034H11C10.8011 10.0034 10.6103 9.9244 10.4697 9.78375C10.329 9.6431 10.25 9.45233 10.25 9.25342C10.25 9.05451 10.329 8.86374 10.4697 8.72309C10.6103 8.58244 10.8011 8.50342 11 8.50342H15.5C15.6989 8.50342 15.8897 8.58244 16.0303 8.72309C16.171 8.86374 16.25 9.05451 16.25 9.25342V13.7534Z" fill="#1C2323"/>
</g>
<defs>
<clipPath id="clip0_94_1747">
<rect width="24" height="24" fill="white" transform="translate(0.5 0.253418)"/>
</clipPath>
</defs>
</svg>
