<svg width="20" height="21" viewBox="0 0 20 21" fill="none" xmlns="http://www.w3.org/2000/svg">
<g id="Clock" clip-path="url(#clip0_89_1451)">
<path id="Vector" d="M10 2.12842C8.39303 2.12842 6.82214 2.60494 5.486 3.49773C4.14985 4.39051 3.10844 5.65947 2.49348 7.14411C1.87852 8.62876 1.71762 10.2624 2.03112 11.8385C2.34463 13.4146 3.11846 14.8624 4.25476 15.9987C5.39106 17.135 6.8388 17.9088 8.4149 18.2223C9.99099 18.5358 11.6247 18.3749 13.1093 17.7599C14.594 17.145 15.8629 16.1036 16.7557 14.7674C17.6485 13.4313 18.125 11.8604 18.125 10.2534C18.1227 8.09923 17.266 6.03393 15.7427 4.51069C14.2195 2.98745 12.1542 2.13069 10 2.12842ZM14.375 10.8784H10C9.83424 10.8784 9.67527 10.8126 9.55806 10.6954C9.44085 10.5781 9.375 10.4192 9.375 10.2534V5.87842C9.375 5.71266 9.44085 5.55369 9.55806 5.43648C9.67527 5.31927 9.83424 5.25342 10 5.25342C10.1658 5.25342 10.3247 5.31927 10.4419 5.43648C10.5592 5.55369 10.625 5.71266 10.625 5.87842V9.62842H14.375C14.5408 9.62842 14.6997 9.69427 14.8169 9.81148C14.9342 9.92869 15 10.0877 15 10.2534C15 10.4192 14.9342 10.5781 14.8169 10.6954C14.6997 10.8126 14.5408 10.8784 14.375 10.8784Z" fill="#F1F4FF"/>
</g>
<defs>
<clipPath id="clip0_89_1451">
<rect width="20" height="20" fill="white" transform="translate(0 0.253418)"/>
</clipPath>
</defs>
</svg>
