<svg width="32" height="32" viewBox="0 0 32 32" fill="none" xmlns="http://www.w3.org/2000/svg">
<g id="Coins" clip-path="url(#clip0_308_21)">
<path id="Vector" d="M12 15C17.5228 15 22 12.9853 22 10.5C22 8.01472 17.5228 6 12 6C6.47715 6 2 8.01472 2 10.5C2 12.9853 6.47715 15 12 15Z" stroke="#1C2323" stroke-width="1.5" stroke-linecap="round" stroke-linejoin="round"/>
<path id="Vector_2" d="M2 10.5V15.5C2 17.985 6.4775 20 12 20C17.5225 20 22 17.985 22 15.5V10.5" stroke="#1C2323" stroke-width="1.5" stroke-linecap="round" stroke-linejoin="round"/>
<path id="Vector_3" d="M8 14.625V19.625" stroke="#1C2323" stroke-width="1.5" stroke-linecap="round" stroke-linejoin="round"/>
<path id="Vector_4" d="M22 12.09C26.565 12.5075 30 14.3225 30 16.5C30 18.985 25.5225 21 20 21C17.55 21 15.305 20.6037 13.5663 19.945" stroke="#1C2323" stroke-width="1.5" stroke-linecap="round" stroke-linejoin="round"/>
<path id="Vector_5" d="M10 19.91V21.5C10 23.985 14.4775 26 20 26C25.5225 26 30 23.985 30 21.5V16.5" stroke="#1C2323" stroke-width="1.5" stroke-linecap="round" stroke-linejoin="round"/>
<path id="Vector_6" d="M24 20.625V25.625" stroke="#1C2323" stroke-width="1.5" stroke-linecap="round" stroke-linejoin="round"/>
<path id="Vector_7" d="M16 14.625V25.625" stroke="#1C2323" stroke-width="1.5" stroke-linecap="round" stroke-linejoin="round"/>
</g>
<defs>
<clipPath id="clip0_308_21">
<rect width="32" height="32" fill="white"/>
</clipPath>
</defs>
</svg>
