<svg width="32" height="32" viewBox="0 0 32 32" fill="none" xmlns="http://www.w3.org/2000/svg">
<g id="Crane" clip-path="url(#clip0_308_65)">
<path id="Vector" d="M3 21H16" stroke="#1C2323" stroke-width="1.5" stroke-linecap="round" stroke-linejoin="round"/>
<path id="Vector_2" d="M3 25V12C3 11.7348 3.10536 11.4804 3.29289 11.2929C3.48043 11.1054 3.73478 11 4 11H13L16 21V25C16 25.2652 15.8946 25.5196 15.7071 25.7071C15.5196 25.8946 15.2652 26 15 26H4C3.73478 26 3.48043 25.8946 3.29289 25.7071C3.10536 25.5196 3 25.2652 3 25Z" stroke="#1C2323" stroke-width="1.5" stroke-linecap="round" stroke-linejoin="round"/>
<path id="Vector_3" d="M7 11V21" stroke="#1C2323" stroke-width="1.5" stroke-linecap="round" stroke-linejoin="round"/>
<path id="Vector_4" d="M13 11L28 3V20C28 20.2652 27.8946 20.5196 27.7071 20.7071C27.5196 20.8946 27.2652 21 27 21H25C24.7348 21 24.4804 20.8946 24.2929 20.7071C24.1054 20.5196 24 20.2652 24 20V19" stroke="#1C2323" stroke-width="1.5" stroke-linecap="round" stroke-linejoin="round"/>
</g>
<defs>
<clipPath id="clip0_308_65">
<rect width="32" height="32" fill="white"/>
</clipPath>
</defs>
</svg>
