<svg width="20" height="21" viewBox="0 0 20 21" fill="none" xmlns="http://www.w3.org/2000/svg">
<g id="Envelope" clip-path="url(#clip0_89_1384)">
<path id="Vector" d="M17.5 4.00342H2.5C2.33424 4.00342 2.17527 4.06927 2.05806 4.18648C1.94085 4.30369 1.875 4.46266 1.875 4.62842V15.2534C1.875 15.5849 2.0067 15.9029 2.24112 16.1373C2.47554 16.3717 2.79348 16.5034 3.125 16.5034H16.875C17.2065 16.5034 17.5245 16.3717 17.7589 16.1373C17.9933 15.9029 18.125 15.5849 18.125 15.2534V4.62842C18.125 4.46266 18.0592 4.30369 17.9419 4.18648C17.8247 4.06927 17.6658 4.00342 17.5 4.00342ZM7.71172 10.2534L3.125 14.4573V6.04951L7.71172 10.2534ZM8.63672 11.1011L9.57422 11.9644C9.68953 12.0702 9.84035 12.1289 9.99687 12.1289C10.1534 12.1289 10.3042 12.0702 10.4195 11.9644L11.357 11.1011L15.8883 15.2534H4.10703L8.63672 11.1011ZM12.2883 10.2534L16.875 6.04873V14.4581L12.2883 10.2534Z" fill="#F1F4FF"/>
</g>
<defs>
<clipPath id="clip0_89_1384">
<rect width="20" height="20" fill="white" transform="translate(0 0.253418)"/>
</clipPath>
</defs>
</svg>
