<svg width="20" height="21" viewBox="0 0 20 21" fill="none" xmlns="http://www.w3.org/2000/svg">
<g id="MapPin" clip-path="url(#clip0_89_1372)">
<path id="Vector" d="M10 1.50342C8.17727 1.50549 6.42979 2.23048 5.14092 3.51934C3.85206 4.80821 3.12707 6.55569 3.125 8.37842C3.125 14.2612 9.375 18.7042 9.64141 18.8901C9.74649 18.9638 9.87169 19.0032 10 19.0032C10.1283 19.0032 10.2535 18.9638 10.3586 18.8901C10.625 18.7042 16.875 14.2612 16.875 8.37842C16.8729 6.55569 16.1479 4.80821 14.8591 3.51934C13.5702 2.23048 11.8227 1.50549 10 1.50342ZM10 5.87842C10.4945 5.87842 10.9778 6.02504 11.3889 6.29974C11.8 6.57445 12.1205 6.96489 12.3097 7.42171C12.4989 7.87852 12.5484 8.38119 12.452 8.86614C12.3555 9.3511 12.1174 9.79655 11.7678 10.1462C11.4181 10.4958 10.9727 10.7339 10.4877 10.8304C10.0028 10.9268 9.50011 10.8773 9.04329 10.6881C8.58648 10.4989 8.19603 10.1785 7.92133 9.76734C7.64662 9.35622 7.5 8.87287 7.5 8.37842C7.5 7.71538 7.76339 7.07949 8.23223 6.61065C8.70107 6.14181 9.33696 5.87842 10 5.87842Z" fill="#F1F4FF"/>
</g>
<defs>
<clipPath id="clip0_89_1372">
<rect width="20" height="20" fill="white" transform="translate(0 0.253418)"/>
</clipPath>
</defs>
</svg>
