<svg width="20" height="21" viewBox="0 0 20 21" fill="none" xmlns="http://www.w3.org/2000/svg">
<g id="Phone" clip-path="url(#clip0_89_1381)">
<path id="Vector" d="M18.1156 13.9314C17.9763 14.99 17.4564 15.9617 16.6531 16.665C15.8497 17.3683 14.8177 17.7552 13.75 17.7533C7.54688 17.7533 2.50001 12.7064 2.50001 6.50326C2.49809 5.43552 2.88492 4.40359 3.58824 3.60021C4.29155 2.79683 5.26326 2.27694 6.32188 2.13763C6.58958 2.10495 6.86067 2.15971 7.09468 2.29376C7.3287 2.4278 7.51309 2.63394 7.62032 2.88138L9.27032 6.56498V6.57435C9.35242 6.76377 9.38633 6.97057 9.36901 7.17629C9.3517 7.382 9.2837 7.58023 9.1711 7.75326C9.15704 7.77435 9.14219 7.79388 9.12657 7.81342L7.50001 9.74154C8.08516 10.9306 9.32891 12.1634 10.5336 12.7501L12.4352 11.1322C12.4538 11.1165 12.4734 11.1019 12.4938 11.0884C12.6666 10.9731 12.8655 10.9027 13.0725 10.8836C13.2794 10.8645 13.4878 10.8973 13.6789 10.979L13.6891 10.9837L17.3695 12.6329C17.6174 12.7398 17.8241 12.924 17.9585 13.1581C18.093 13.3921 18.1481 13.6634 18.1156 13.9314Z" fill="#F1F4FF"/>
</g>
<defs>
<clipPath id="clip0_89_1381">
<rect width="20" height="20" fill="white" transform="translate(0 0.253418)"/>
</clipPath>
</defs>
</svg>
