<svg width="25" height="25" viewBox="0 0 25 25" fill="none" xmlns="http://www.w3.org/2000/svg">
<g id="ShareNetwork" clip-path="url(#clip0_87_1331)">
<path id="Vector" d="M6.66669 15.5C8.32354 15.5 9.66669 14.1569 9.66669 12.5C9.66669 10.8431 8.32354 9.5 6.66669 9.5C5.00983 9.5 3.66669 10.8431 3.66669 12.5C3.66669 14.1569 5.00983 15.5 6.66669 15.5Z" stroke="black" stroke-width="2" stroke-linecap="round" stroke-linejoin="round"/>
<path id="Vector_2" d="M17.1667 22.25C18.8235 22.25 20.1667 20.9069 20.1667 19.25C20.1667 17.5931 18.8235 16.25 17.1667 16.25C15.5098 16.25 14.1667 17.5931 14.1667 19.25C14.1667 20.9069 15.5098 22.25 17.1667 22.25Z" stroke="black" stroke-width="2" stroke-linecap="round" stroke-linejoin="round"/>
<path id="Vector_3" d="M17.1667 8.75C18.8235 8.75 20.1667 7.40685 20.1667 5.75C20.1667 4.09315 18.8235 2.75 17.1667 2.75C15.5098 2.75 14.1667 4.09315 14.1667 5.75C14.1667 7.40685 15.5098 8.75 17.1667 8.75Z" stroke="black" stroke-width="2" stroke-linecap="round" stroke-linejoin="round"/>
<path id="Vector_4" d="M14.6439 7.37183L9.18951 10.8781" stroke="black" stroke-width="2" stroke-linecap="round" stroke-linejoin="round"/>
<path id="Vector_5" d="M9.18951 14.1218L14.6439 17.6281" stroke="black" stroke-width="2" stroke-linecap="round" stroke-linejoin="round"/>
</g>
<defs>
<clipPath id="clip0_87_1331">
<rect width="24" height="24" fill="white" transform="translate(0.666687 0.5)"/>
</clipPath>
</defs>
</svg>
