<svg width="32" height="32" viewBox="0 0 32 32" fill="none" xmlns="http://www.w3.org/2000/svg">
<g id="Stethoscope" clip-path="url(#clip0_308_13)">
<path id="Vector" d="M26 21.25C26.6904 21.25 27.25 20.6904 27.25 20C27.25 19.3096 26.6904 18.75 26 18.75C25.3097 18.75 24.75 19.3096 24.75 20C24.75 20.6904 25.3097 21.25 26 21.25Z" fill="#1C2323"/>
<path id="Vector_2" d="M26 24C28.2092 24 30 22.2091 30 20C30 17.7909 28.2092 16 26 16C23.7909 16 22 17.7909 22 20C22 22.2091 23.7909 24 26 24Z" stroke="#1C2323" stroke-width="1.5" stroke-linecap="round" stroke-linejoin="round"/>
<path id="Vector_3" d="M13 18V24C13 25.3261 13.5268 26.5979 14.4645 27.5355C15.4022 28.4732 16.6739 29 18 29H21C22.3261 29 23.5979 28.4732 24.5355 27.5355C25.4732 26.5979 26 25.3261 26 24" stroke="#1C2323" stroke-width="1.5" stroke-linecap="round" stroke-linejoin="round"/>
<path id="Vector_4" d="M17 5H20V10.8962C20 14.7425 16.94 17.95 13.0925 18C12.1655 18.0123 11.2453 17.8402 10.3853 17.4939C9.52533 17.1476 8.7427 16.634 8.08286 15.9827C7.42302 15.3315 6.89912 14.5557 6.54157 13.7003C6.18401 12.845 5.99993 11.9271 6.00002 11V5H9.00002" stroke="#1C2323" stroke-width="1.5" stroke-linecap="round" stroke-linejoin="round"/>
</g>
<defs>
<clipPath id="clip0_308_13">
<rect width="32" height="32" fill="white"/>
</clipPath>
</defs>
</svg>
